<svg xmlns="http://www.w3.org/2000/svg" viewBox="0 0 256 256" width="512" height="512">
  <defs>
    <linearGradient id="gradient" x1="0%" y1="0%" x2="100%" y2="100%">
      <stop offset="0%" style="stop-color:#7c3aed;stop-opacity:1" />
      <stop offset="50%" style="stop-color:#0d9488;stop-opacity:1" />
      <stop offset="100%" style="stop-color:#2563eb;stop-opacity:1" />
    </linearGradient>
  </defs>
  <path d="M 52.3 43.4 C 36.8 43.4 26.6 59.8 33.5 73.8 L 105.1 216.9 C 114.3 235.3 141.7 235.3 150.9 216.9 L 222.5 73.8 C 229.4 59.8 219.2 43.4 203.7 43.4 L 180 43.4 C 170 43.4 161.4 50.5 159.2 60.3 L 140 146 L 120.8 60.3 C 118.6 50.5 110 43.4 100 43.4 L 52.3 43.4 Z" fill="url(#gradient)" />
  <path d="M 128 85 C 112.5 85 100 95 100 107 C 100 119 112.5 129 128 129 C 131 129 135 128 138 127 L 148 133 L 145 123 C 151 119 156 114 156 107 C 156 95 143.5 85 128 85 Z" fill="white" fill-opacity="0.95" />
</svg>
